<svg xmlns="http://www.w3.org/2000/svg" viewBox="0 -0.5 32 32" shape-rendering="crispEdges">
<metadata>Made with Pixels to Svg https://codepen.io/shshaw/pen/XbxvNj</metadata>
<path stroke="#000080" d="M0 0h14M17 0h15M0 1h12M19 1h13M0 2h10M21 2h11M0 3h8M23 3h9M0 4h1M2 4h3M6 4h2M23 4h2M26 4h6M1 5h2M4 5h2M7 5h1M23 5h3M27 5h5M0 6h1M2 6h2M5 6h3M23 6h1M25 6h4M31 6h1M0 7h7M23 7h2M26 7h1M28 7h4M1 8h1M4 8h2M7 8h1M23 8h6M30 8h1M0 9h1M2 9h2M6 9h2M23 9h2M27 9h2M30 9h1M1 10h1M4 10h2M7 10h1M23 10h1M25 10h2M29 10h1M31 10h1M2 11h1M6 11h1M23 11h2M27 11h2M30 11h1M23 12h1M29 12h1M31 12h1" />
<path stroke="#808080" d="M14 0h1M16 0h1M12 1h1M18 1h1M10 2h1M20 2h1M8 3h1M22 3h1M10 4h1M20 4h1M12 5h1M18 5h1M10 6h1M14 6h1M16 6h1M6 13h1M8 13h1M23 13h1M25 13h1M4 14h1M10 14h1M21 14h1M27 14h1M2 15h1M12 15h1M19 15h1M29 15h1M0 16h1M14 16h2M17 16h1M31 16h1M2 17h1M12 17h1M19 17h1M29 17h1M4 18h1M10 18h1M20 18h2M27 18h1M6 19h1M8 19h1M22 19h2M25 19h1M20 20h1M21 21h1M23 21h1M16 24h1M18 24h1M19 25h1M15 26h3M23 26h1M1 27h1M13 27h1M18 27h2M22 27h1M30 27h1M3 28h1M11 28h1M20 28h1M28 28h1M5 29h1M9 29h1M22 29h1M26 29h1" />
<path stroke="#ffffff" d="M15 0h1M13 1h5M11 2h9M9 3h13M11 4h9M13 5h5M15 6h1M7 13h1M24 13h1M5 14h5M22 14h5M3 15h9M20 15h9M1 16h13M18 16h13M3 17h9M20 17h9M5 18h5M22 18h5M7 19h1M24 19h1M0 27h1M14 27h4M31 27h1M0 28h3M12 28h8M29 28h3M0 29h5M10 29h12M27 29h5M0 30h32M0 31h32" />
<path stroke="#0000ff" d="M1 4h1M5 4h1M25 4h1M0 5h1M3 5h1M6 5h1M26 5h1M1 6h1M4 6h1M24 6h1M29 6h2M7 7h1M25 7h1M27 7h1M0 8h1M2 8h2M6 8h1M29 8h1M31 8h1M1 9h1M4 9h2M25 9h2M29 9h1M31 9h1M0 10h1M2 10h2M6 10h1M24 10h1M27 10h2M30 10h1M0 11h2M3 11h3M7 11h1M25 11h2M29 11h1M31 11h1M0 12h8M24 12h5M30 12h1M0 13h6M26 13h6M0 14h4M28 14h4M0 15h2M30 15h2" />
<path stroke="#00ffff" d="M8 4h2M8 5h2M8 6h2M8 7h3M14 7h2M8 8h4M13 8h3M8 9h8M8 10h2M11 10h2M14 10h2M8 11h2M11 11h2M14 11h2M8 12h2M14 12h2M9 13h1M14 13h2M14 14h2M14 15h2M0 17h2M0 18h4M17 18h3M0 19h6M16 19h6M0 20h2M4 20h4M16 20h2M21 20h2M0 21h2M6 21h2M16 21h2M22 21h1M0 22h4M16 22h2M22 22h2M0 23h6M16 23h2M0 24h2M4 24h2M17 24h1M0 25h2M17 25h2M22 25h2M0 26h2M18 26h5M20 27h2" />
<path stroke="#000000" d="M21 4h2M10 5h2M19 5h4M11 6h3M17 6h6M11 7h3M16 7h7M12 8h1M16 8h7M16 9h7M10 10h1M13 10h1M16 10h7M10 11h1M13 11h1M16 11h7M10 12h4M16 12h7M10 13h4M16 13h7M11 14h3M16 14h5M13 15h1M16 15h3M16 16h1M13 17h6M30 17h2M11 18h6M28 18h4M9 19h7M26 19h6M2 20h2M8 20h8M18 20h2M23 20h9M2 21h4M8 21h8M18 21h3M24 21h8M4 22h12M18 22h4M24 22h8M6 23h10M18 23h14M2 24h2M6 24h10M19 24h13M2 25h15M20 25h2M24 25h8M2 26h13M24 26h8M2 27h11M23 27h7M4 28h7M21 28h7M6 29h3M23 29h3" />
</svg>